<svg width="22" height="19" viewBox="0 0 22 19" fill="none" xmlns="http://www.w3.org/2000/svg">
<path d="M21.4107 2.82979H0.589286C0.263853 2.82979 0 2.55828 0 2.2234V0.606383C0 0.271508 0.263853 0 0.589286 0H21.4107C21.7361 0 22 0.271508 22 0.606383V2.2234C22 2.55828 21.7361 2.82979 21.4107 2.82979ZM21.4107 10.9149H0.589286C0.263853 10.9149 0 10.6434 0 10.3085V8.69149C0 8.35662 0.263853 8.08511 0.589286 8.08511H21.4107C21.7361 8.08511 22 8.35662 22 8.69149V10.3085C22 10.6434 21.7361 10.9149 21.4107 10.9149ZM21.4107 19H0.589286C0.263853 19 0 18.7285 0 18.3936V16.7766C0 16.4417 0.263853 16.1702 0.589286 16.1702H21.4107C21.7361 16.1702 22 16.4417 22 16.7766V18.3936C22 18.7285 21.7361 19 21.4107 19Z" fill="white"/>
</svg>
